<?xml version="1.0" encoding="UTF-8"?>
<svg id="Layer_1" data-name="Layer 1" xmlns="http://www.w3.org/2000/svg" viewBox="0 0 741.54 851.77">
  <path class="cls-1" d="m709.05,821.1c15.48-14.28,13-32.51,11-123,0,0-.18-8.35,0-276,.06-91.67-2.15-183.36,0-275,2.01-85.59,4.43-104.58-11-118-26.6-23.13-87.41-13.28-371,164C29.98,385.68,19.05,425.75,20.05,452.1c.97,25.62,14.11,62.13,310,226,295.95,163.9,353.5,166.52,379,143Z"/>
  <path class="cls-2" d="m709.52,821.15c15.48-14.28,13-32.51,11-123,0,0-.18-8.35,0-276,.06-91.67-2.15-183.36,0-275,2.01-85.59,4.43-104.58-11-118-26.6-23.13-87.41-13.28-371,164C30.45,385.73,19.53,425.8,20.52,452.15c.97,25.62,14.11,62.13,310,226,295.95,163.9,353.5,166.52,379,143Z"/>
</svg>