<?xml version="1.0" encoding="UTF-8"?>
<svg id="Layer_1" data-name="Layer 1" xmlns="http://www.w3.org/2000/svg" viewBox="0 0 536.2 522.02">
  <defs>
    <style>
      .cls-1 {
        fill: #fcd5a0;
      }

      .cls-2 {
        fill: #ffbb5a;
      }

      .cls-3 {
        fill: #fb9e84;
      }

      .cls-4 {
        fill: #cf3951;
      }
    </style>
  </defs>
  <path class="cls-4" d="m213.91,276.83c2.24-6.14-15.98-15.45-35.34-31.35-14.28-11.72-75.47-61.93-74.77-124.26.48-43.2,30.7-92.55,68.34-101.34,31.04-7.26,44.77,18.3,86.93,11.72,33.65-5.26,35.4-23.19,67.12-29.62,36.98-7.49,87.85,6.09,112.02,42.89,29.19,44.43,5.18,100.95-1.99,117.84-32.72,77.03-113.7,115.27-109.67,121.14,2,2.92,19.44-10.12,51.49-14.5,5.28-.72,23.36-2.9,46.11.78,13.29,2.15,40.1,6.81,66.17,26.74,12.32,9.42,40.6,31.03,44.99,67.38.95,7.84,3.98,33-11.11,51.06-17.06,20.41-38.52,9.33-56.88,29.79-16.01,17.84-6.04,33.34-21.36,50.89-14.95,17.12-41.95,22.39-61.83,19.45-49.47-7.31-86.18-70.11-95.35-119.49-4.08-21.94-3.53-45.61-9.47-46.28-4.36-.5-8.98,11.75-15.89,30.48-28.78,78.01-26.69,77.31-32.21,86.58-3.12,5.23-32.21,52.54-77.8,55.06-7.03.39-26.72,1.48-40.81-10.94-16.26-14.32-7.69-31.28-24.75-51.67-11.09-13.25-17.54-9.46-40.55-26.31-15.05-11.02-31.57-23.11-40.3-41.68-12.35-26.27-8.23-63.65,11.72-86.93,22.39-26.12,58.65-27.42,102.99-29.01,53.86-1.93,89.19,9.87,92.22,1.56Z"/>
  <path class="cls-3" d="m226.82,289.71c1.83-5.02-13.06-12.64-28.9-25.63-11.67-9.58-61.71-50.64-61.14-101.6.4-35.33,25.11-75.67,55.88-82.86,25.38-5.93,36.61,14.97,71.08,9.58,27.52-4.3,28.95-18.96,54.89-24.22,30.24-6.13,71.83,4.98,91.6,35.07,23.87,36.33,4.24,82.54-1.63,96.35-26.76,62.99-92.97,94.25-89.67,99.06,1.63,2.39,15.9-8.28,42.11-11.86,4.32-.59,19.1-2.38,37.7.64,10.87,1.76,32.79,5.57,54.11,21.87,10.08,7.7,33.2,25.38,36.78,55.1.77,6.41,3.26,26.98-9.09,41.75-13.95,16.69-31.5,7.63-46.51,24.36-13.09,14.59-4.94,27.26-17.47,41.61-12.23,14-34.3,18.31-50.55,15.91-40.45-5.98-70.46-57.32-77.97-97.7-3.34-17.94-2.89-37.29-7.74-37.84-3.56-.41-7.34,9.61-12.99,24.92-23.53,63.79-21.82,63.21-26.34,70.79-2.55,4.28-26.34,42.96-63.62,45.02-5.75.32-21.84,1.21-33.37-8.94-13.3-11.71-6.28-25.58-20.24-42.25-9.07-10.83-14.34-7.74-33.16-21.51-12.3-9.01-25.81-18.9-32.95-34.08-10.1-21.48-6.73-52.04,9.58-71.08,18.31-21.36,47.96-22.42,84.21-23.72,44.04-1.58,72.93,8.07,75.41,1.27Z"/>
  <path class="cls-1" d="m247.56,305.85c1.19-3.78-8.38-9.47-18.55-19.21-7.49-7.18-39.62-37.94-39.16-76.24.32-26.54,16.29-56.91,36.11-62.37,16.34-4.5,23.53,11.18,45.72,7.07,17.72-3.28,18.66-14.3,35.36-18.3,19.47-4.66,46.21,3.61,58.88,26.19,15.29,27.26,2.58,62.01-1.22,72.4-17.33,47.38-60,70.99-57.88,74.59,1.05,1.79,10.25-6.25,27.12-8.99,2.78-.45,12.3-1.82,24.26.41,6.99,1.3,21.09,4.13,34.78,16.33,6.47,5.77,21.32,19.01,23.57,41.33.49,4.81,2.05,20.27-5.92,31.39-9,12.57-20.28,5.79-29.97,18.39-8.45,10.98-3.23,20.5-11.31,31.3-7.89,10.54-22.1,13.82-32.56,12.05-26.02-4.42-45.24-42.94-49.99-73.27-2.11-13.48-1.79-28.01-4.91-28.42-2.29-.3-4.74,7.23-8.41,18.75-15.26,47.97-14.16,47.54-17.08,53.24-1.65,3.22-17.03,32.33-41.02,33.94-3.7.25-14.06.95-21.46-6.66-8.53-8.78-4-19.21-12.95-31.71-5.82-8.12-9.22-5.79-21.3-16.1-7.9-6.75-16.57-14.15-21.14-25.55-6.46-16.12-4.24-39.09,6.3-53.42,11.82-16.08,30.9-16.93,54.23-17.98,28.34-1.27,46.91,5.93,48.52.82Z"/>
  <circle class="cls-2" cx="274.68" cy="325.07" r="34.06"/>
</svg>