<?xml version="1.0" encoding="UTF-8"?>
<svg id="Layer_1" data-name="Layer 1" xmlns="http://www.w3.org/2000/svg" viewBox="0 0 741.54 851.77">
  <defs>
    <style>
      .cls-1 {
        fill: #fff;
        stroke: #fff;
        stroke-miterlimit: 10;
        stroke-width: 40px;
      }

      .cls-2 {
        fill: #d4f2d2;
      }
    </style>
  </defs>
  <path class="cls-1" d="m32.49,30.68c-15.48,14.28-13,32.51-11,123,0,0,.18,8.35,0,276-.06,91.67,2.15,183.36,0,275-2.01,85.59-4.43,104.58,11,118,26.6,23.13,87.41,13.28,371-164,308.07-192.58,319-232.65,318-259-.97-25.62-14.11-62.13-310-226C115.54,9.78,57.99,7.16,32.49,30.68Z"/>
  <path class="cls-2" d="m32.01,30.62c-15.48,14.28-13,32.51-11,123,0,0,.18,8.35,0,276-.06,91.67,2.15,183.36,0,275-2.01,85.59-4.43,104.58,11,118,26.6,23.13,87.41,13.28,371-164,308.07-192.58,319-232.65,318-259-.97-25.62-14.11-62.13-310-226C115.06,9.73,57.51,7.11,32.01,30.62Z"/>
</svg>