<?xml version="1.0" encoding="UTF-8"?>
<svg id="Layer_1" data-name="Layer 1" xmlns="http://www.w3.org/2000/svg" viewBox="0 0 1767.93 580.68">
  <defs>
    <style>
      .cls-1 {
        fill: #fff;
      }

      .cls-2 {
        fill: #90ccff;
      }

      .cls-3 {
        fill: #abe0ff;
      }

      .cls-4 {
        fill: #d7f1ff;
      }

      .cls-5 {
        fill: #c5e9ff;
      }
    </style>
  </defs>
  <g>
    <path class="cls-1" d="m34.23,272.86c13.07-102.26,200.85-155.08,293-181,120.6-33.92,215.07-39.62,404-51,42.57-2.57,202.27-11.56,412-5,33.5,1.05-1.86.3,202,12,15.92.91,220.28,12.64,336,72,24.98,12.81,50.51,30.25,53,55,1.77,17.65-8.87,32.06-14,39-15.63,21.16-37.72,31.29-107,50-31.08,8.39-54.78,14.79-93,23-71.04,15.25-79.69,12.58-99,26-10.02,6.97-25.82,26.07-57,64-22.26,27.08-30.37,38.02-37,46-40.64,48.95-95.83,71.21-130,85-53.82,21.71-95.61,25.86-174,33-78.37,7.14-139.45,6.61-174,6-108.27-1.91-240.69-4.81-413-35-18.89-3.31-106.12-18.96-215-56-101.32-34.47-144.91-61.43-169-107-6.4-12.1-22.32-42.21-18-76Z"/>
    <path class="cls-1" d="m883.68,580.68c-12.68,0-24.35-.14-35.04-.33-101.19-1.79-239.79-4.24-418.19-35.5-32-5.61-117.49-22.41-220.01-57.28-55.43-18.86-92.61-35.11-120.53-52.71-30.8-19.41-52.18-41.76-67.3-70.35-7.46-14.11-27.28-51.59-21.62-95.91h0c4.05-31.69,20.39-61.25,48.56-87.87,21.52-20.34,50.75-39.56,86.87-57.13,62.79-30.54,134.37-50.67,181.74-64,124.06-34.9,219.98-40.68,411.06-52.19,73.56-4.43,225.29-10.98,415.06-5.04,14.92.47,16.99.61,30.46,1.53,18.1,1.24,55.76,3.81,172.41,10.51,37.97,2.18,233.25,16.07,349.37,75.64,28.45,14.59,66.76,38.92,71.04,81.46,3.07,30.51-13.97,53.58-20.39,62.26-22.43,30.35-52.3,42.74-125.21,62.43-31.08,8.39-55.63,15.02-94.7,23.41-22.11,4.75-38.54,7.84-50.54,10.09-26.96,5.07-29.34,5.77-36.37,10.66-6.42,4.46-27.71,30.36-50.25,57.77-13.64,16.59-21.8,26.92-27.75,34.46-3.68,4.66-6.58,8.33-9.35,11.67-46.04,55.45-106.88,80-143.24,94.67-59.5,24.01-106.17,28.26-183.5,35.3-56.79,5.17-104.26,6.46-142.59,6.46ZM34.23,272.86l33.23,4.25c-2.97,23.26,9.19,46.27,14.39,56.09,16.67,31.52,45.54,55.35,150.17,90.94,98.08,33.36,179.53,49.38,209.99,54.72,173.25,30.36,308.82,32.75,407.81,34.5,41.31.73,98,.72,170.37-5.87,79.17-7.21,116.2-11.21,164.5-30.7,32.46-13.1,81.52-32.89,116.76-75.33,2.24-2.7,4.79-5.93,8.32-10.39,6.13-7.76,14.52-18.38,28.58-35.48,34.14-41.52,49.72-60.47,63.75-70.23,19.3-13.42,32.75-15.95,62.24-21.49,12.29-2.31,27.59-5.19,48.86-9.76,37.36-8.02,59.99-14.13,91.3-22.59,65.65-17.73,79.95-25.6,88.79-37.57,2.63-3.55,8.09-10.95,7.61-15.74-.19-1.87-2.76-12.02-34.96-28.54-44.51-22.84-112.03-41.72-195.24-54.62-59.52-9.22-108.91-12.68-127.38-13.74-117.02-6.72-154.93-9.31-173.15-10.56-12.95-.89-14.3-.98-27.99-1.41-187.11-5.86-336.52.59-408.94,4.96-186.3,11.22-279.81,16.86-396.94,49.81-45.07,12.68-113.17,31.83-170.58,59.75-42,20.43-93.15,53.19-98.27,93.25l-33.23-4.25Z"/>
  </g>
  <path class="cls-2" d="m33.84,284.05c13.07-102.26,200.85-155.08,293-181,120.6-33.92,215.07-39.62,404-51,42.57-2.57,202.27-11.56,412-5,33.5,1.05-1.86.3,202,12,15.92.91,220.28,12.64,336,72,24.98,12.81,50.51,30.25,53,55,1.77,17.65-8.87,32.06-14,39-15.63,21.16-37.72,31.29-107,50-31.08,8.39-54.78,14.79-93,23-71.04,15.25-79.69,12.58-99,26-10.02,6.97-25.82,26.07-57,64-22.26,27.08-30.37,38.02-37,46-40.64,48.95-95.83,71.21-130,85-53.82,21.71-95.61,25.86-174,33-78.37,7.14-139.45,6.61-174,6-108.27-1.91-240.69-4.81-413-35-18.89-3.31-106.12-18.96-215-56-101.32-34.47-144.91-61.43-169-107-6.4-12.1-22.32-42.21-18-76Z"/>
  <path class="cls-3" d="m33.62,259.82c13.07-102.26,200.85-155.08,293-181,120.6-33.92,215.07-39.62,404-51,42.57-2.57,202.27-11.56,412-5,33.5,1.05-1.86.3,202,12,15.92.91,220.28,12.64,336,72,24.98,12.81,50.51,30.25,53,55,1.77,17.65-8.87,32.06-14,39-15.63,21.16-37.72,31.29-107,50-31.08,8.39-54.78,14.79-93,23-71.04,15.25-79.69,12.58-99,26-10.02,6.97-25.82,26.07-57,64-22.26,27.08-30.37,38.02-37,46-40.64,48.95-95.83,71.21-130,85-53.82,21.71-95.61,25.86-174,33-78.37,7.14-139.45,6.61-174,6-108.27-1.91-240.69-4.81-413-35-18.89-3.31-106.12-18.96-215-56-101.32-34.47-144.91-61.43-169-107-6.4-12.1-22.32-42.21-18-76Z"/>
  <path class="cls-5" d="m149.13,264.05c10.04-78.52,154.22-119.08,224.98-138.98,92.6-26.05,165.14-30.42,310.21-39.16,32.69-1.97,155.31-8.88,316.35-3.84,25.72.8-1.43.23,155.11,9.21,12.22.7,169.14,9.7,258,55.29,19.18,9.84,38.79,23.23,40.7,42.23,1.36,13.55-6.81,24.62-10.75,29.95-12,16.25-28.96,24.03-82.16,38.39-23.86,6.44-42.07,11.36-71.41,17.66-54.54,11.71-61.19,9.66-76.02,19.96-7.69,5.35-19.82,20.02-43.77,49.14-17.09,20.79-23.32,29.19-28.41,35.32-31.21,37.58-73.58,54.68-99.82,65.27-41.32,16.67-73.42,19.86-133.61,25.34-60.18,5.48-107.08,5.08-133.61,4.61-83.14-1.47-184.81-3.69-317.12-26.87-14.5-2.54-81.48-14.56-165.09-43-77.8-26.46-111.27-47.17-129.77-82.16-4.91-9.29-17.14-32.41-13.82-58.36Z"/>
  <path class="cls-4" d="m396.68,251.08c7.15-55.93,109.86-84.82,160.26-99,65.96-18.56,117.63-21.67,220.97-27.89,23.29-1.4,110.63-6.32,225.35-2.73,18.32.57-1.02.16,110.49,6.56,8.71.5,120.49,6.91,183.78,39.38,13.66,7.01,27.63,16.55,28.99,30.08.97,9.65-4.85,17.54-7.66,21.33-8.55,11.57-20.63,17.11-58.52,27.35-17,4.59-29.96,8.09-50.87,12.58-38.85,8.34-43.59,6.88-54.15,14.22-5.48,3.81-14.12,14.26-31.18,35.01-12.18,14.81-16.61,20.8-20.24,25.16-22.23,26.77-52.41,38.95-71.1,46.49-29.44,11.88-52.3,14.15-95.17,18.05-42.87,3.9-76.28,3.62-95.17,3.28-59.22-1.05-131.65-2.63-225.89-19.14-10.33-1.81-58.04-10.37-117.6-30.63-55.42-18.85-79.26-33.6-92.44-58.52-3.5-6.62-12.21-23.09-9.85-41.57Z"/>
  <path class="cls-1" d="m308.62,99.01c-.36-2.32,115.27-26.3,258-41.19,141.56-14.78,258.87-15.3,259-12.98.12,2.1-95.09,6.06-257,22.98-164.3,17.16-259.68,33.29-260,31.19Z"/>
  <path class="cls-1" d="m801.78,522.51c-.19,2.34-118.23-.85-260.57-19.1-141.17-18.1-255.47-44.5-255.07-46.79.37-2.07,93.94,15.92,255.42,36.6,163.85,20.99,260.39,27.18,260.22,29.29Z"/>
  <path class="cls-1" d="m1546.34,226.45c.33-7.96,5.06-12.08,7.38-14.1,3.04-2.64,5.41-3.09,10.17-3.97,1.07-.2,5.09-.9,10.37-.39.84.08-.05.02,5.09.93.4.07,5.55.98,8.46,5.61.63,1,1.27,2.36,1.33,4.28.04,1.37-.22,2.5-.35,3.04-.39,1.65-.95,2.44-2.69,3.89-.78.65-1.38,1.15-2.34,1.79-1.79,1.19-2.01.98-2.49,2.03-.25.54-.65,2.03-1.43,4.98-.56,2.11-.76,2.96-.93,3.58-1.02,3.81-2.41,5.55-3.27,6.62-1.35,1.69-2.41,2.01-4.38,2.57-1.97.56-3.51.51-4.38.47-2.73-.15-6.06-.37-10.4-2.73-.48-.26-2.67-1.48-5.41-4.36-2.55-2.68-3.65-4.78-4.25-8.33-.16-.94-.56-3.29-.45-5.92Z"/>
  <path class="cls-1" d="m1354.62,342.82c-2.16-1.26,7.33-40.97,41-64,29.12-19.91,66.47-20.62,68-16,1.08,3.26-14.9,11.39-22,15-17.88,9.1-28.34,10.35-38,14-34.57,13.06-46.81,52.28-49,51Z"/>
  <path class="cls-1" d="m1476.5,255.22c.67,5.64,23.2,11.85,41.67,2.79,11.92-5.84,23-18.45,20.41-22.85-5.02-8.51-63.2,10.66-62.08,20.06Z"/>
</svg>