<?xml version="1.0" encoding="UTF-8"?>
<svg id="Layer_1" data-name="Layer 1" xmlns="http://www.w3.org/2000/svg" viewBox="0 0 763.45 447.03">
  <defs>
    <style>
      .cls-1 {
        fill: #733d00;
      }

      .cls-2 {
        fill: #98620a;
      }

      .cls-3 {
        fill: #5f2f01;
      }

      .cls-4 {
        fill: #4f2501;
      }

      .cls-5 {
        fill: #fff;
        stroke: #fff;
        stroke-miterlimit: 10;
        stroke-width: 35px;
      }
    </style>
  </defs>
  <path class="cls-5" d="m18.68,374.04c-3.11-8.94-6.57-31.84,82-126,64.3-68.35,96.45-102.53,148-136,57.5-37.33,191.93-124.62,334-84,25.8,7.38,93.5,26.74,134,92,7.46,12.03,41.01,69.13,25,141-17.55,78.77-81.66,117.05-100,128-24.33,14.53-52.58,25.18-141,34-73.84,7.36-171.25,11.61-323-5-135.77-14.86-153.7-28.76-159-44Z"/>
  <path class="cls-4" d="m18.23,374.43c-3.11-8.94-6.57-31.84,82-126,64.3-68.35,96.45-102.53,148-136,57.5-37.33,191.93-124.62,334-84,25.8,7.38,93.5,26.74,134,92,7.46,12.03,41.01,69.13,25,141-17.55,78.77-81.66,117.05-100,128-24.33,14.53-52.58,25.18-141,34-73.84,7.36-171.25,11.61-323-5-135.77-14.86-153.7-28.76-159-44Z"/>
  <path class="cls-3" d="m125.23,345.43c-67.49,18.9-98.61,39.16-107,29-10.63-12.88,26.7-60.64,52-93,29.15-37.29,55.68-62.84,82-88,28.27-27.02,51.24-48.97,86-74,11.94-8.6,43.09-30.84,82-50C371.99,43.94,461.39-.08,558.16,25.53c24.63,6.52,77.13,21.1,110.03,70.75,6.13,9.25,33.68,53.16,20.53,108.43-14.41,60.57-67.05,90.01-82.11,98.43-19.98,11.17-43.18,19.37-115.78,26.15-129.96,12.14-157.57-19.23-265.23-3.84-59.27,8.47-100.36,19.98-100.36,19.98Z"/>
  <path class="cls-1" d="m228.28,269.31c-128.31,39.34-159.47,36.82-164.04,27.12-3.14-6.67,13.19-24.54,46-60,20.4-22.05,41.78-45.03,75-74,16.93-14.77,35.75-31.08,63-50,40.23-27.92,73.96-44.25,84-49,27.29-12.91,63.04-29.82,113-39,37.11-6.82,72.67-13.35,115.87-1.05,22.53,6.42,60.3,17.73,84.59,54.39,4.71,7.11,25.89,40.87,15.78,83.36-11.08,46.57-51.55,69.2-63.13,75.67-15.36,8.59-33.19,14.89-89.01,20.1-92.65,8.65-126.69-11.17-203.91-2.96-33.74,3.59-60.65,10.49-77.16,15.36Z"/>
  <path class="cls-2" d="m140.23,260.06c-3.93-6.5,81.56-75.34,193-128.63,118.98-56.9,233.47-79.8,236-72.46,1.95,5.64-62.9,27.59-210,96.46-152.17,71.25-215.75,110.01-219,104.63Z"/>
</svg>