<?xml version="1.0" encoding="UTF-8"?>
<svg id="Layer_1" data-name="Layer 1" xmlns="http://www.w3.org/2000/svg" viewBox="0 0 730.43 473.32">
  <defs>
    <style>
      .cls-1 {
        fill: #fff;
      }

      .cls-2 {
        fill: #9c7ca5;
      }

      .cls-3 {
        fill: #896279;
      }

      .cls-4 {
        fill: #290025;
      }
    </style>
  </defs>
  <g>
    <polyline class="cls-1" points="372.16 341.17 423.03 224.8 539.4 275.66"/>
    <polygon class="cls-1" points="372.62 341.37 371.71 340.97 422.77 224.14 539.6 275.2 539.2 276.12 423.29 225.46 372.62 341.37"/>
  </g>
  <g>
    <rect class="cls-1" x="353.92" y="-19.46" width="20" height="421" transform="translate(43.11 447.98) rotate(-66.39)"/>
    <path class="cls-1" d="m557.96,297.68L153.87,121.06l16.02-36.65,404.08,176.62-16.02,36.65h.01ZM180.21,110.74l100.4,43.88-100.4-43.88h0Z"/>
  </g>
  <g>
    <path class="cls-1" d="m37.28,295.04c-13.33-35.24-29.95-91.77-26.91-155.09.13-2.77,3.09-54.2,28.76-89.97,4.56-6.35,11.33-14.29,22.27-20.56,4.94-2.83,22.65-12.99,44.54-8.57,14.28,2.89,23.35,10.57,25.98,12.85,7.32,6.36,11.22,13.3,15.77,21.42,2.91,5.18,4.36,7.77,4.64,10.28.96,8.67-5.97,12.98-13.92,25.7-8.74,13.99-9.53,23.48-12.06,23.13-3.09-.42,0-14.28-7.42-32.56-2.68-6.61-8.45-20.82-20.41-23.13-4.33-.84-7.93.18-10.21.86-15.79,4.67-23.43,21.34-28.76,33.42-6.5,14.71-8.47,26.69-10.21,37.7-3.39,21.51-2.39,38.71-1.86,47.13.39,6.12,1.19,12.37,2.78,24.85.32,2.48,1.76,9.94,4.64,24.85.7,3.63,1.16,5.88,2.78,8.57,1.74,2.88,3.27,3.71,3.71,6,.65,3.4-1.78,6.4-2.78,7.71-5.04,6.58-6.55,14.96-10.21,22.28-2.73,5.45-6.57,13.3-11.13,23.13h.01Z"/>
    <path class="cls-1" d="m36.34,320.83l-8.42-22.25C7.21,243.81-2.06,190.28.38,139.48c.11-2.3,3.02-56.86,30.63-95.32,4.62-6.44,12.29-15.88,25.42-23.41,17.2-9.86,34.52-13.12,51.49-9.7,7.82,1.58,19.48,5.49,30.55,15.1,8.63,7.5,13.15,15.55,17.94,24.07,3.34,5.96,5.36,9.55,5.86,14.08,1.09,9.84-3.89,16.37-8.71,22.7-2.03,2.66-4.33,5.67-6.66,9.41-4.09,6.55-6.21,11.95-7.76,15.88-1.92,4.89-5.14,13.07-14.12,11.86-1.83-.25-7.96-1.68-9.72-9.72-.4-1.83-.56-3.8-.77-6.29-.45-5.37-1.13-13.48-4.87-22.7-1.92-4.73-6.41-15.79-13.04-17.08-2.02-.39-3.94.17-5.47.63-11.67,3.45-18.16,18.14-22.45,27.87-6.1,13.82-7.89,25.19-9.48,35.22-3.29,20.85-2.21,37.73-1.75,44.93.37,5.81,1.16,11.96,2.72,24.22.28,2.16,1.88,10.44,4.53,24.17.65,3.36.87,4.24,1.54,5.35.34.56.67.98,1.14,1.57,1.23,1.55,3.1,3.89,3.83,7.71,1.48,7.7-3.07,13.61-4.56,15.55l-.1.13c-2.22,2.9-3.68,6.87-5.23,11.07-1.15,3.12-2.34,6.34-3.97,9.6-3.68,7.36-7.38,15.06-11.01,22.87l-10.01,21.58h-.01ZM94.9,29.75c-9.28,0-18.84,2.79-28.52,8.35-9.75,5.59-15.58,12.79-19.12,17.72-24.2,33.7-26.87,84.11-26.9,84.61-1.97,41.09,4.21,84.21,18.38,128.47.24-.49.49-.98.73-1.47,1.13-2.27,2.08-4.85,3.09-7.57,1.9-5.16,4.06-11.01,8.12-16.31l.06-.07c-.49-.66-1.04-1.45-1.6-2.38-2.58-4.27-3.29-7.95-4.04-11.84-3.01-15.59-4.38-22.68-4.74-25.48-1.62-12.67-2.43-19.03-2.84-25.48-.5-7.87-1.68-26.28,1.96-49.32,1.68-10.68,3.78-23.98,10.94-40.18,5.43-12.3,14.52-32.89,35.08-38.97,2.64-.78,8.13-2.4,14.94-1.08,17.29,3.34,24.64,21.46,27.78,29.19.95,2.34,1.75,4.62,2.42,6.81,2.58-4.02,5.04-7.24,7.04-9.87,3.88-5.09,4.89-6.65,4.75-8.27-.27-.95-1.87-3.81-3.43-6.58-4.42-7.87-7.6-13.55-13.61-18.76-7.79-6.76-15.94-9.5-21.41-10.6-2.98-.6-6.01-.9-9.06-.9l-.02-.02Z"/>
  </g>
  <g>
    <ellipse class="cls-1" cx="94.42" cy="163.54" rx="57" ry="109.5"/>
    <path class="cls-1" d="m94.42,283.04c-37.57,0-67-52.49-67-119.5S56.85,44.04,94.42,44.04s67,52.49,67,119.5-29.43,119.5-67,119.5Zm0-219c-11.15,0-22.61,9.73-31.44,26.69-10.04,19.28-15.56,45.14-15.56,72.81s5.53,53.53,15.56,72.81c8.83,16.96,20.29,26.69,31.44,26.69s22.61-9.73,31.44-26.69c10.04-19.28,15.56-45.14,15.56-72.81s-5.53-53.53-15.56-72.81c-8.83-16.96-20.29-26.69-31.44-26.69Z"/>
  </g>
  <g>
    <ellipse class="cls-1" cx="99.6" cy="173.04" rx="55.18" ry="106"/>
    <path class="cls-1" d="m99.6,289.04c-36.55,0-65.18-50.95-65.18-116S63.05,57.04,99.6,57.04s65.18,50.95,65.18,116-28.63,116-65.18,116Zm0-212c-10.67,0-21.66,9.35-30.15,25.66-9.69,18.62-15.03,43.6-15.03,70.34s5.34,51.71,15.03,70.34c8.49,16.31,19.48,25.66,30.15,25.66s21.66-9.35,30.15-25.66c9.69-18.62,15.03-43.6,15.03-70.34s-5.34-51.71-15.03-70.34c-8.49-16.31-19.48-25.66-30.15-25.66Z"/>
  </g>
  <g>
    <polyline class="cls-1" points="378.63 320.85 672.43 228.07 692.01 260.65 338.42 394.04"/>
    <polygon class="cls-1" points="341.95 403.4 334.89 384.69 677.26 255.53 667.92 239.98 381.64 330.39 375.62 311.32 676.93 216.16 706.76 265.78 341.95 403.4"/>
  </g>
  <g>
    <polyline class="cls-1" points="378.63 320.85 672.43 228.07 692.01 260.65 338.42 394.04"/>
    <polygon class="cls-1" points="341.95 403.4 334.89 384.69 677.26 255.53 667.92 239.98 381.64 330.39 375.62 311.32 676.93 216.16 706.76 265.78 341.95 403.4"/>
  </g>
  <g>
    <polyline class="cls-1" points="378.91 321.7 664.05 227.52 686.22 240.21 344.83 364.19"/>
    <polygon class="cls-1" points="348.24 373.59 341.41 354.79 650.81 242.43 382.05 331.2 375.78 312.21 665.14 216.63 709.91 242.24 348.24 373.59"/>
  </g>
  <g>
    <g>
      <ellipse class="cls-1" cx="677.9" cy="241.27" rx="37.68" ry="81.38" transform="translate(-40.1 193.94) rotate(-15.82)"/>
      <path class="cls-1" d="m695.09,330.32c-11.47,0-23.54-6.84-34.72-19.85-11.96-13.93-22.03-33.87-28.34-56.15s-8.2-44.54-5.32-62.67c3.3-20.8,12.64-34.38,26.29-38.25s28.72,2.8,42.45,18.77c11.96,13.93,22.03,33.87,28.34,56.15s8.2,44.54,5.32,62.67c-3.3,20.8-12.64,34.38-26.29,38.25-2.53.72-5.11,1.07-7.73,1.07h0Zm-34.4-157.96c-.79,0-1.54.1-2.25.3-5.55,1.57-10.04,9.85-11.99,22.15-2.44,15.33-.73,34.53,4.81,54.08,5.54,19.55,14.16,36.8,24.27,48.57,8.11,9.44,16.27,14.13,21.82,12.56s10.04-9.85,11.99-22.14c2.44-15.33.73-34.53-4.81-54.08h0c-5.54-19.55-14.16-36.8-24.27-48.57-7.08-8.24-14.19-12.86-19.58-12.86h.01Z"/>
    </g>
    <g>
      <ellipse class="cls-1" cx="685.68" cy="238.84" rx="30.53" ry="65.94" transform="translate(-39.14 195.97) rotate(-15.82)"/>
      <path class="cls-1" d="m699.75,312.88c-20.51,0-42.43-25.37-53.07-62.93-11.8-41.65-3.94-77.82,18.3-84.11,22.23-6.3,47.9,20.36,59.7,62.02,5.19,18.31,6.74,36.64,4.36,51.59-2.8,17.62-10.85,29.17-22.66,32.52-2.18.62-4.4.92-6.63.92h0Zm-27.92-128c-.49,0-.96.06-1.39.18-7.86,2.23-13.67,27.06-4.51,59.42s27.14,50.45,35.01,48.22c3.66-1.04,6.94-7.48,8.36-16.42,1.9-11.98.5-27.65-3.85-43h0c-8.66-30.57-25.18-48.41-33.61-48.41h-.01Z"/>
    </g>
    <g>
      <ellipse class="cls-1" cx="672.26" cy="227.68" rx="4.7" ry="10.14" transform="translate(-36.61 191.89) rotate(-15.82)"/>
      <path class="cls-1" d="m674.43,247.57c-3.97,0-7.91-1.94-10.99-5.52-2.33-2.72-4.17-6.28-5.31-10.31-3.23-11.41.32-21.03,8.65-23.39,8.33-2.36,16.4,3.96,19.63,15.37,1.14,4.03,1.45,8.03.89,11.57-.95,5.98-4.51,10.39-9.54,11.81-1.1.31-2.22.46-3.33.46h0Z"/>
    </g>
    <g>
      <ellipse class="cls-1" cx="682.9" cy="196.92" rx="4.7" ry="10.14" transform="translate(-27.82 193.63) rotate(-15.82)"/>
      <path class="cls-1" d="m685.07,216.82c-3.97,0-7.91-1.94-10.99-5.52-2.33-2.72-4.17-6.28-5.31-10.31-3.23-11.41.32-21.03,8.65-23.39,8.33-2.36,16.4,3.96,19.63,15.37,1.14,4.03,1.45,8.03.89,11.57-.95,5.98-4.51,10.39-9.54,11.82-1.1.31-2.22.46-3.33.46h0Z"/>
    </g>
    <g>
      <ellipse class="cls-1" cx="675.98" cy="255.6" rx="4.7" ry="10.14" transform="translate(-44.08 193.96) rotate(-15.82)"/>
      <path class="cls-1" d="m678.15,275.49c-3.97,0-7.91-1.94-10.99-5.52-2.33-2.72-4.17-6.29-5.31-10.32-3.23-11.41.32-21.03,8.65-23.38,5.02-1.42,10.37.47,14.32,5.06,2.33,2.72,4.17,6.29,5.31,10.32,1.14,4.03,1.45,8.03.89,11.57-.95,5.98-4.51,10.39-9.54,11.82-1.1.31-2.22.46-3.33.46h0Z"/>
    </g>
    <g>
      <ellipse class="cls-1" cx="686.62" cy="224.83" rx="4.7" ry="10.14" transform="translate(-35.29 195.7) rotate(-15.82)"/>
      <path class="cls-1" d="m688.65,244.76c-7.02,0-13.38-6.05-16.16-15.86-3.23-11.41.32-21.03,8.65-23.39,8.33-2.36,16.4,3.96,19.63,15.37,3.23,11.41-.32,21.03-8.65,23.39-1.17.33-2.33.49-3.47.49Z"/>
    </g>
    <g>
      <ellipse class="cls-1" cx="688.56" cy="248.86" rx="4.7" ry="10.14" transform="translate(-41.76 197.14) rotate(-15.82)"/>
      <path class="cls-1" d="m690.72,268.75c-3.97,0-7.91-1.94-10.99-5.52-2.33-2.72-4.17-6.29-5.31-10.32-1.14-4.03-1.45-8.03-.89-11.57.95-5.98,4.51-10.39,9.54-11.82,8.32-2.36,16.4,3.96,19.63,15.37h0c3.23,11.41-.32,21.03-8.65,23.39-1.1.31-2.22.46-3.33.46h0Z"/>
    </g>
    <g>
      <ellipse class="cls-1" cx="699.2" cy="218.09" rx="4.7" ry="10.14" transform="translate(-32.97 198.87) rotate(-15.82)"/>
      <path class="cls-1" d="m701.23,238.02c-7.02,0-13.38-6.05-16.16-15.86-1.14-4.03-1.45-8.03-.89-11.57.95-5.98,4.51-10.39,9.54-11.81,8.33-2.36,16.4,3.96,19.63,15.37,1.14,4.03,1.45,8.03.89,11.57-.95,5.98-4.51,10.39-9.54,11.81-1.16.33-2.32.49-3.47.49Z"/>
    </g>
    <g>
      <ellipse class="cls-1" cx="692.27" cy="276.77" rx="4.7" ry="10.14" transform="translate(-49.23 199.21) rotate(-15.82)"/>
      <path class="cls-1" d="m694.44,296.67c-3.97,0-7.91-1.94-10.99-5.52-2.33-2.72-4.17-6.29-5.31-10.32-1.14-4.03-1.45-8.03-.89-11.57.95-5.98,4.51-10.39,9.54-11.82,8.32-2.36,16.4,3.96,19.63,15.37h0c3.23,11.41-.32,21.03-8.65,23.39-1.1.31-2.22.46-3.33.46h0Z"/>
    </g>
    <g>
      <ellipse class="cls-1" cx="702.91" cy="246" rx="4.7" ry="10.14" transform="translate(-40.44 200.94) rotate(-15.82)"/>
      <path class="cls-1" d="m705.08,265.91c-3.97,0-7.91-1.94-10.99-5.52-2.33-2.72-4.17-6.29-5.31-10.32-1.14-4.03-1.45-8.03-.89-11.57.95-5.98,4.51-10.39,9.54-11.82,8.33-2.36,16.4,3.96,19.63,15.37h0c3.23,11.41-.32,21.03-8.65,23.39-1.1.31-2.22.46-3.33.46h0Z"/>
    </g>
    <g>
      <ellipse class="cls-1" cx="668.47" cy="202.53" rx="4.7" ry="10.14" transform="translate(-29.89 189.91) rotate(-15.82)"/>
      <path class="cls-1" d="m670.5,222.45c-7.02,0-13.38-6.05-16.16-15.86-3.23-11.41.32-21.03,8.65-23.39,8.33-2.36,16.4,3.96,19.63,15.37,1.14,4.03,1.45,8.03.89,11.57-.95,5.98-4.51,10.39-9.54,11.81-1.16.33-2.32.49-3.47.49h0Z"/>
    </g>
    <g>
      <ellipse class="cls-1" cx="703.75" cy="271.49" rx="4.7" ry="10.14" transform="translate(-47.36 202.14) rotate(-15.82)"/>
      <path class="cls-1" d="m705.92,291.38c-3.97,0-7.91-1.94-10.99-5.52-2.33-2.72-4.17-6.29-5.31-10.32-1.14-4.03-1.45-8.03-.89-11.57.95-5.98,4.51-10.39,9.54-11.82,8.33-2.36,16.4,3.96,19.63,15.37h0c3.23,11.41-.32,21.03-8.65,23.39-1.1.31-2.22.46-3.33.46h0Z"/>
    </g>
  </g>
  <g>
    <path class="cls-1" d="m163.42,17.04L20.42,329.04c10,16.36,27.56,40.67,56,63,26.56,20.86,52.39,31.98,70,38,22.3,9.85,52,20.47,88,27,32.5,5.9,61.21,6.84,84,6,48.33-105.67,96.67-211.33,145-317-18.88.74-35.14.05-48-1-12.09-.99-27.78-2.33-48-7-17.78-4.11-31.23-8.98-34-10-2.95-1.08-10.3-4.05-25-10-12.65-5.12-19.04-7.7-22-9-5.26-2.3-17.29-7.74-30-15-16.73-9.56-28.11-18.56-40.34-28.31-10.41-8.3-23.45-19.47-37.66-33.69"/>
    <path class="cls-1" d="m304.12,473.31c-23.96,0-47.94-2.15-71.49-6.42-30.88-5.6-61.11-14.86-89.86-27.52-26.3-9.03-50.7-22.31-72.53-39.46-23.27-18.27-42.9-40.36-58.36-65.65l-2.78-4.54L154.33,12.88l18.18,8.33L31.76,328.3c13.75,21.39,30.83,40.16,50.84,55.88,20.18,15.85,42.74,28.09,67.06,36.4l.81.32c27.43,12.11,56.28,20.96,85.75,26.31,24.92,4.52,50.35,6.54,75.71,6.02l135.79-296.88c-11.08,0-22.16-.45-33.1-1.34-11.19-.91-28.09-2.29-49.44-7.22-16.93-3.91-30.25-8.54-35.19-10.35-3.12-1.14-10.53-4.14-25.31-10.12-13.26-5.36-19.25-7.79-22.26-9.11-7.54-3.3-19.03-8.67-30.95-15.48-17.75-10.14-29.88-19.82-41.62-29.17-13.35-10.65-26.31-22.24-38.5-34.44l14.15-14.13c11.66,11.67,24.05,22.76,36.82,32.94,11.65,9.29,22.66,18.07,39.07,27.45,11.16,6.37,21.96,11.42,29.05,14.52,2.88,1.26,9.58,3.97,21.74,8.89,14.11,5.71,21.89,8.85,24.69,9.88,4.59,1.68,16.97,5.99,32.81,9.65,19.92,4.61,35.32,5.86,46.56,6.78,15.45,1.26,31.19,1.59,46.8.97l9.75,16.36-147.83,320.39-6.16.23c-4.88.18-9.78.27-14.67.27h-.01Z"/>
  </g>
  <g>
    <path class="cls-1" d="m164.22,15.51c-8.74,16.31,56.14,71.34,125.39,103.15,74.16,34.07,165.74,47.23,173.3,29.47,7.97-18.71-77.14-72.28-149.85-102.17C258.78,23.65,173.18-1.2,164.23,15.51h-.01Z"/>
    <path class="cls-1" d="m435.89,165.97c-37.86,0-100.39-15.21-150.46-38.22-60.88-27.97-121.95-75.34-130.69-101.37-2.45-7.29-.99-12.51.67-15.6,6.86-12.8,27.36-14.12,68.53-4.41,27.66,6.52,63.27,18.15,92.92,30.34,57.28,23.55,142.96,71.62,154.86,100.65,2.7,6.57,1.7,11.62.39,14.69-2.01,4.72-6.05,8.27-12,10.58-5.88,2.27-14.18,3.34-24.21,3.34h-.01ZM173.91,20.69c1.96,4.84,10.39,17.19,34.9,36.76,24.54,19.59,55.51,38.59,84.97,52.12,31.6,14.52,69.28,26.34,103.37,32.42,34.51,6.16,50.63,3.97,55.68,2.04-2.56-4.89-13.62-17.54-45.73-38.13-28.55-18.3-65.13-37.25-97.84-50.7-26.86-11.04-58.41-21.52-84.4-28.03-33.89-8.49-46.78-7.44-50.94-6.49h-.01Z"/>
  </g>
  <g>
    <path class="cls-1" d="m195.42,30.37c-6.93,12.92,44.48,56.52,99.34,81.72,58.75,26.99,131.3,37.42,137.29,23.35,6.31-14.83-61.11-57.26-118.72-80.94-43-17.68-110.82-37.36-117.91-24.13Z"/>
    <path class="cls-1" d="m410.28,151.7c-30.37,0-79.31-11.96-119.7-30.51-49.52-22.75-97.44-60.09-104.64-81.53-2.18-6.48-.84-11.19.67-14h0c5.97-11.13,22.89-12.49,56.6-4.54,22.01,5.19,50.34,14.44,73.93,24.14,43.97,18.08,113.73,56.28,123.82,80.87,2.41,5.87,1.49,10.44.3,13.24-1.25,2.94-4.12,6.97-10.67,9.5-4.98,1.93-11.94,2.83-20.3,2.83h-.01ZM206.32,36.14c2.9,4.7,10.4,13.74,26.85,26.73,19.12,15.09,43.09,29.72,65.76,40.14,24.35,11.19,53.49,20.4,79.92,25.27,23.27,4.28,36.18,3.76,41.88,2.67-3.64-4.72-13.4-14.1-35.29-28-22.29-14.16-50.67-28.81-75.92-39.19-20.67-8.5-45.07-16.64-65.28-21.79-22.13-5.63-33.02-6.16-37.94-5.82h.02Z"/>
  </g>
  <g>
    <path class="cls-1" d="m294.83,112c58.75,26.99,131.3,37.42,137.29,23.35,6.31-14.83-61.11-57.26-118.72-80.94"/>
    <path class="cls-1" d="m410.35,151.6c-30.37,0-79.31-11.96-119.7-30.51l8.35-18.17c24.36,11.19,53.49,20.4,79.92,25.27,23.28,4.28,36.19,3.76,41.88,2.67-3.64-4.72-13.4-14.1-35.29-28-22.29-14.16-50.67-28.81-75.92-39.19l7.6-18.5c43.97,18.08,113.73,56.28,123.82,80.87,2.41,5.87,1.49,10.44.3,13.24-1.25,2.94-4.12,6.97-10.67,9.5-4.98,1.92-11.94,2.83-20.3,2.83h.01Z"/>
  </g>
  <rect class="cls-3" x="353.28" y="-18.08" width="20" height="421" transform="translate(41.47 448.22) rotate(-66.39)"/>
  <path class="cls-2" d="m36.64,296.42c-13.33-35.24-29.95-91.77-26.91-155.09.13-2.77,3.09-54.2,28.76-89.97,4.56-6.35,11.33-14.29,22.27-20.56,4.94-2.83,22.65-12.99,44.54-8.57,14.28,2.89,23.35,10.57,25.98,12.85,7.32,6.36,11.22,13.3,15.77,21.42,2.91,5.18,4.36,7.77,4.64,10.28.96,8.67-5.97,12.98-13.92,25.7-8.74,13.99-9.53,23.48-12.06,23.13-3.09-.42,0-14.28-7.42-32.56-2.68-6.61-8.45-20.82-20.41-23.13-4.33-.84-7.93.18-10.21.86-15.79,4.67-23.43,21.34-28.76,33.42-6.5,14.71-8.47,26.69-10.21,37.7-3.39,21.51-2.39,38.71-1.86,47.13.39,6.12,1.19,12.37,2.78,24.85.32,2.48,1.76,9.94,4.64,24.85.7,3.63,1.16,5.88,2.78,8.57,1.74,2.88,3.27,3.71,3.71,6,.65,3.4-1.78,6.4-2.78,7.71-5.04,6.58-6.55,14.96-10.21,22.28-2.73,5.45-6.57,13.3-11.13,23.13h.01Z"/>
  <ellipse class="cls-3" cx="93.78" cy="164.92" rx="57" ry="109.5"/>
  <g>
    <ellipse class="cls-1" cx="98.96" cy="174.42" rx="55.18" ry="106"/>
    <path class="cls-1" d="m98.96,280.92c-30.7,0-55.68-47.78-55.68-106.5s24.98-106.5,55.68-106.5,55.68,47.78,55.68,106.5-24.98,106.5-55.68,106.5Zm0-212c-30.15,0-54.68,47.33-54.68,105.5s24.53,105.5,54.68,105.5,54.68-47.33,54.68-105.5-24.53-105.5-54.68-105.5Z"/>
  </g>
  <polyline class="cls-3" points="377.98 322.22 671.78 229.45 691.37 262.02 337.78 395.42"/>
  <polyline class="cls-3" points="377.98 322.22 671.78 229.45 691.37 262.02 337.78 395.42"/>
  <polyline class="cls-2" points="378.27 323.08 663.4 228.9 685.57 241.58 344.18 365.56"/>
  <ellipse class="cls-3" cx="677.26" cy="242.64" rx="37.68" ry="81.38" transform="translate(-40.5 193.82) rotate(-15.82)"/>
  <ellipse class="cls-2" cx="685.03" cy="240.22" rx="30.53" ry="65.94" transform="translate(-39.54 195.85) rotate(-15.82)"/>
  <ellipse class="cls-3" cx="671.62" cy="229.04" rx="4.7" ry="10.14" transform="translate(-37 191.77) rotate(-15.82)"/>
  <ellipse class="cls-3" cx="682.26" cy="198.29" rx="4.7" ry="10.14" transform="translate(-28.21 193.5) rotate(-15.82)"/>
  <ellipse class="cls-3" cx="675.34" cy="256.97" rx="4.7" ry="10.14" transform="translate(-44.47 193.84) rotate(-15.82)"/>
  <ellipse class="cls-3" cx="685.98" cy="226.21" rx="4.7" ry="10.14" transform="translate(-35.68 195.58) rotate(-15.82)"/>
  <ellipse class="cls-3" cx="687.91" cy="250.22" rx="4.7" ry="10.14" transform="translate(-42.16 197.01) rotate(-15.82)"/>
  <ellipse class="cls-3" cx="698.55" cy="219.47" rx="4.7" ry="10.14" transform="translate(-33.37 198.75) rotate(-15.82)"/>
  <ellipse class="cls-3" cx="691.63" cy="278.15" rx="4.7" ry="10.14" transform="translate(-49.63 199.09) rotate(-15.82)"/>
  <ellipse class="cls-3" cx="702.28" cy="247.38" rx="4.7" ry="10.14" transform="translate(-40.84 200.82) rotate(-15.82)"/>
  <ellipse class="cls-3" cx="667.84" cy="203.91" rx="4.7" ry="10.14" transform="translate(-30.29 189.79) rotate(-15.82)"/>
  <ellipse class="cls-3" cx="703.12" cy="272.85" rx="4.7" ry="10.14" transform="translate(-47.75 202.02) rotate(-15.82)"/>
  <path class="cls-2" d="m162.78,18.42L19.78,330.42c10,16.36,27.56,40.67,56,63,26.56,20.86,52.39,31.98,70,38,22.3,9.85,52,20.47,88,27,32.5,5.9,61.21,6.84,84,6,48.33-105.67,96.67-211.33,145-317-18.88.74-35.14.05-48-1-12.09-.99-27.78-2.33-48-7-17.78-4.11-31.23-8.98-34-10-2.95-1.08-10.3-4.05-25-10-12.65-5.12-19.04-7.7-22-9-5.26-2.3-17.29-7.74-30-15-16.73-9.56-28.11-18.56-40.34-28.31-10.41-8.3-23.45-19.47-37.66-33.69"/>
  <path class="cls-3" d="m163.57,16.88c-8.74,16.31,56.14,71.34,125.39,103.15,74.16,34.07,165.74,47.23,173.3,29.47,7.97-18.71-77.14-72.28-149.85-102.17C258.13,25.02,172.53.17,163.58,16.88h-.01Z"/>
  <path class="cls-4" d="m194.78,31.75c-6.93,12.92,44.48,56.52,99.34,81.72,58.75,26.99,131.3,37.42,137.29,23.35,6.31-14.83-61.11-57.26-118.72-80.94-43-17.68-110.82-37.36-117.91-24.13Z"/>
  <path class="cls-2" d="m294.19,113.37c58.75,26.99,131.3,37.42,137.29,23.35,6.31-14.83-61.11-57.26-118.72-80.94"/>
</svg>